<?xml version="1.0" standalone="no"?><svg xmlns:xlink="http://www.w3.org/1999/xlink" xmlns="http://www.w3.org/2000/svg" viewBox="0 0 1000 666.6666666666666" preserveAspectRatio="xMaxYMax slice"><g transform="scale(0.9760858955588092)"><rect x="0" y="0" width="1024.5" height="683" fill="#0d1117"/><g transform="translate(0,0) scale(3.415) rotate(0)"><path d="M10 0L20 10L10 20L0 10L10 0Z" fill="#2f5665"/></g><g transform="translate(68.3,0) scale(3.415) rotate(0)"><path d="M10 0L20 10L10 20L0 10L10 0Z" fill="#2f5665"/></g><g transform="translate(136.6,0) scale(3.415) rotate(0)"><path d="M10 0L20 10L10 20L0 10L10 0Z" fill="#0c161d"/></g><circle cx="239.05" cy="34.15" r="34.15" fill="#294a58"/><g transform="translate(273.2,0) scale(3.415) rotate(0)"><path d="M10 0L20 10L10 20L0 10L10 0Z" fill="#0b2027"/></g><g transform="translate(341.5,0) scale(3.415) rotate(0)"><path d="M10 0L20 10L10 20L0 10L10 0Z" fill="#0d141a"/></g><g transform="translate(409.8,0) scale(3.415) rotate(0)"><path d="M10 0L20 10L10 20L0 10L10 0Z" fill="#2c505e"/></g><g transform="translate(478.1,0) scale(3.415) rotate(0)"><path d="M10 0H20V10L10 20H0V10L10 0Z" fill="#192932"/></g><g transform="translate(546.4,0) scale(3.415) rotate(0)"><path d="M10 0H20V10L10 20H0V10L10 0Z" fill="#2d515f"/></g><circle cx="648.85" cy="34.15" r="34.15" fill="#0f151c"/><circle cx="717.15" cy="34.15" r="34.15" fill="#335e6e"/><g transform="translate(751.3,0) scale(3.415) rotate(0)"><path d="M10 0H20V10L10 20H0V10L10 0Z" fill="#294957"/></g><circle cx="853.75" cy="34.15" r="34.15" fill="#16232c"/><g transform="translate(887.9,0) scale(3.415) rotate(0)"><path d="M10 0H20V10L10 20H0V10L10 0Z" fill="#0c1a21"/></g><g transform="translate(956.2,0) scale(3.415) rotate(0)"><path d="M10 0L20 10L10 20L0 10L10 0Z" fill="#223c47"/></g><g transform="translate(0,68.3) scale(3.415) rotate(0)"><path d="M10 0H20V10L10 20H0V10L10 0Z" fill="#0b1d24"/></g><g transform="translate(68.3,68.3) scale(3.415) rotate(0)"><path d="M10 0L20 10L10 20L0 10L10 0Z" fill="#1a2c36"/></g><g transform="translate(136.6,68.3) scale(3.415) rotate(0)"><path d="M10 0L20 10L10 20L0 10L10 0Z" fill="#0c161c"/></g><g transform="translate(204.9,68.3) scale(3.415) rotate(0)"><path d="M10 0L20 10L10 20L0 10L10 0Z" fill="#24414d"/></g><circle cx="307.34999999999997" cy="102.44999999999999" r="34.15" fill="#10181f"/><g transform="translate(341.5,68.3) scale(3.415) rotate(0)"><path d="M10 0L20 10L10 20L0 10L10 0Z" fill="#0b2027"/></g><g transform="translate(409.8,68.3) scale(3.415) rotate(0)"><path d="M10 0L20 10L10 20L0 10L10 0Z" fill="#0c1c23"/></g><g transform="translate(478.1,68.3) scale(3.415) rotate(0)"><path d="M10 0H20V10L10 20H0V10L10 0Z" fill="#0b2027"/></g><circle cx="580.55" cy="102.44999999999999" r="34.15" fill="#0e1319"/><g transform="translate(614.7,68.3) scale(3.415) rotate(0)"><path d="M10 0H20V10L10 20H0V10L10 0Z" fill="#0b1c23"/></g><circle cx="717.15" cy="102.44999999999999" r="34.15" fill="#0d1319"/><circle cx="785.4499999999999" cy="102.44999999999999" r="34.15" fill="#0c1a21"/><circle cx="853.75" cy="102.44999999999999" r="34.15" fill="#0b1d24"/><circle cx="922.05" cy="102.44999999999999" r="34.15" fill="#1f3640"/><g transform="translate(956.2,68.3) scale(3.415) rotate(0)"><path d="M10 0H20V10L10 20H0V10L10 0Z" fill="#0c161c"/></g><g transform="translate(0,136.6) scale(3.415) rotate(0)"><path d="M10 0H20V10L10 20H0V10L10 0Z" fill="#0b1e24"/></g><g transform="translate(68.3,136.6) scale(3.415) rotate(0)"><path d="M10 0L20 10L10 20L0 10L10 0Z" fill="#1a2c36"/></g><g transform="translate(136.6,136.6) scale(3.415) rotate(0)"><path d="M10 0H20V10L10 20H0V10L10 0Z" fill="#0c151b"/></g><circle cx="239.05" cy="170.75" r="34.15" fill="#1b2d37"/><g transform="translate(273.2,136.6) scale(3.415) rotate(0)"><path d="M10 0H20V10L10 20H0V10L10 0Z" fill="#0c1b21"/></g><g transform="translate(341.5,136.6) scale(3.415) rotate(0)"><path d="M10 0L20 10L10 20L0 10L10 0Z" fill="#2b4e5b"/></g><g transform="translate(409.8,136.6) scale(3.415) rotate(0)"><path d="M10 0L20 10L10 20L0 10L10 0Z" fill="#2a4b59"/></g><circle cx="512.25" cy="170.75" r="34.15" fill="#2a4c59"/><g transform="translate(546.4,136.6) scale(3.415) rotate(0)"><path d="M10 0L20 10L10 20L0 10L10 0Z" fill="#0d1319"/></g><circle cx="648.85" cy="170.75" r="34.15" fill="#0c1920"/><circle cx="717.15" cy="170.75" r="34.15" fill="#325c6b"/><g transform="translate(751.3,136.6) scale(3.415) rotate(0)"><path d="M10 0L20 10L10 20L0 10L10 0Z" fill="#0c181e"/></g><circle cx="853.75" cy="170.75" r="34.15" fill="#0d1117"/><g transform="translate(887.9,136.6) scale(3.415) rotate(0)"><path d="M10 0H20V10L10 20H0V10L10 0Z" fill="#1b2d36"/></g><g transform="translate(956.2,136.6) scale(3.415) rotate(0)"><path d="M10 0L20 10L10 20L0 10L10 0Z" fill="#274754"/></g><g transform="translate(0,204.9) scale(3.415) rotate(0)"><path d="M10 0H20V10L10 20H0V10L10 0Z" fill="#0c1a20"/></g><g transform="translate(68.3,204.9) scale(3.415) rotate(0)"><path d="M10 0H20V10L10 20H0V10L10 0Z" fill="#0d1319"/></g><circle cx="170.75" cy="239.05" r="34.15" fill="#0c1a21"/><g transform="translate(204.9,204.9) scale(3.415) rotate(0)"><path d="M10 0H20V10L10 20H0V10L10 0Z" fill="#0c1920"/></g><g transform="translate(273.2,204.9) scale(3.415) rotate(0)"><path d="M10 0H20V10L10 20H0V10L10 0Z" fill="#0d141a"/></g><g transform="translate(341.5,204.9) scale(3.415) rotate(0)"><path d="M10 0L20 10L10 20L0 10L10 0Z" fill="#335e6d"/></g><circle cx="443.95" cy="239.05" r="34.15" fill="#0d141a"/><g transform="translate(478.1,204.9) scale(3.415) rotate(0)"><path d="M10 0H20V10L10 20H0V10L10 0Z" fill="#1a2b34"/></g><circle cx="580.55" cy="239.05" r="34.15" fill="#284754"/><g transform="translate(614.7,204.9) scale(3.415) rotate(0)"><path d="M10 0L20 10L10 20L0 10L10 0Z" fill="#0c181f"/></g><circle cx="717.15" cy="239.05" r="34.15" fill="#223b47"/><circle cx="785.4499999999999" cy="239.05" r="34.15" fill="#0d141a"/><circle cx="853.75" cy="239.05" r="34.15" fill="#264451"/><g transform="translate(887.9,204.9) scale(3.415) rotate(0)"><path d="M10 0L20 10L10 20L0 10L10 0Z" fill="#315b6a"/></g><g transform="translate(956.2,204.9) scale(3.415) rotate(0)"><path d="M10 0H20V10L10 20H0V10L10 0Z" fill="#2d5361"/></g><g transform="translate(0,273.2) scale(3.415) rotate(0)"><path d="M10 0H20V10L10 20H0V10L10 0Z" fill="#0c171d"/></g><g transform="translate(68.3,273.2) scale(3.415) rotate(0)"><path d="M10 0L20 10L10 20L0 10L10 0Z" fill="#396b7c"/></g><g transform="translate(136.6,273.2) scale(3.415) rotate(0)"><path d="M10 0H20V10L10 20H0V10L10 0Z" fill="#3f778a"/></g><g transform="translate(204.9,273.2) scale(3.415) rotate(0)"><path d="M10 0H20V10L10 20H0V10L10 0Z" fill="#0c1c22"/></g><circle cx="307.34999999999997" cy="307.34999999999997" r="34.15" fill="#213a45"/><circle cx="375.65" cy="307.34999999999997" r="34.15" fill="#192a34"/><g transform="translate(409.8,273.2) scale(3.415) rotate(0)"><path d="M10 0L20 10L10 20L0 10L10 0Z" fill="#0b2027"/></g><g transform="translate(478.1,273.2) scale(3.415) rotate(0)"><path d="M10 0L20 10L10 20L0 10L10 0Z" fill="#0f151c"/></g><g transform="translate(546.4,273.2) scale(3.415) rotate(0)"><path d="M10 0L20 10L10 20L0 10L10 0Z" fill="#3a6c7d"/></g><g transform="translate(614.7,273.2) scale(3.415) rotate(0)"><path d="M10 0L20 10L10 20L0 10L10 0Z" fill="#2b4f5c"/></g><g transform="translate(683,273.2) scale(3.415) rotate(0)"><path d="M10 0H20V10L10 20H0V10L10 0Z" fill="#386879"/></g><g transform="translate(751.3,273.2) scale(3.415) rotate(0)"><path d="M10 0L20 10L10 20L0 10L10 0Z" fill="#0b1f26"/></g><circle cx="853.75" cy="307.34999999999997" r="34.15" fill="#0b1d24"/><g transform="translate(887.9,273.2) scale(3.415) rotate(0)"><path d="M10 0H20V10L10 20H0V10L10 0Z" fill="#0c1920"/></g><circle cx="990.35" cy="307.34999999999997" r="34.15" fill="#3c7183"/><g transform="translate(0,341.5) scale(3.415) rotate(0)"><path d="M10 0L20 10L10 20L0 10L10 0Z" fill="#16242c"/></g><g transform="translate(68.3,341.5) scale(3.415) rotate(0)"><path d="M10 0L20 10L10 20L0 10L10 0Z" fill="#0d141a"/></g><circle cx="170.75" cy="375.65" r="34.15" fill="#0d1218"/><g transform="translate(204.9,341.5) scale(3.415) rotate(0)"><path d="M10 0H20V10L10 20H0V10L10 0Z" fill="#0b1c23"/></g><g transform="translate(273.2,341.5) scale(3.415) rotate(0)"><path d="M10 0H20V10L10 20H0V10L10 0Z" fill="#1c2f38"/></g><g transform="translate(341.5,341.5) scale(3.415) rotate(0)"><path d="M10 0L20 10L10 20L0 10L10 0Z" fill="#131d25"/></g><circle cx="443.95" cy="375.65" r="34.15" fill="#0b2027"/><g transform="translate(478.1,341.5) scale(3.415) rotate(0)"><path d="M10 0H20V10L10 20H0V10L10 0Z" fill="#2f5665"/></g><circle cx="580.55" cy="375.65" r="34.15" fill="#0b1f26"/><g transform="translate(614.7,341.5) scale(3.415) rotate(0)"><path d="M10 0H20V10L10 20H0V10L10 0Z" fill="#0c161c"/></g><g transform="translate(683,341.5) scale(3.415) rotate(0)"><path d="M10 0H20V10L10 20H0V10L10 0Z" fill="#223b46"/></g><g transform="translate(751.3,341.5) scale(3.415) rotate(0)"><path d="M10 0L20 10L10 20L0 10L10 0Z" fill="#3f778a"/></g><circle cx="853.75" cy="375.65" r="34.15" fill="#192932"/><circle cx="922.05" cy="375.65" r="34.15" fill="#0f141b"/><g transform="translate(956.2,341.5) scale(3.415) rotate(0)"><path d="M10 0L20 10L10 20L0 10L10 0Z" fill="#0c1c23"/></g><g transform="translate(0,409.8) scale(3.415) rotate(0)"><path d="M10 0L20 10L10 20L0 10L10 0Z" fill="#284754"/></g><g transform="translate(68.3,409.8) scale(3.415) rotate(0)"><path d="M10 0H20V10L10 20H0V10L10 0Z" fill="#0c1a21"/></g><circle cx="170.75" cy="443.95" r="34.15" fill="#0c171e"/><g transform="translate(204.9,409.8) scale(3.415) rotate(0)"><path d="M10 0H20V10L10 20H0V10L10 0Z" fill="#0b1e25"/></g><g transform="translate(273.2,409.8) scale(3.415) rotate(0)"><path d="M10 0H20V10L10 20H0V10L10 0Z" fill="#17262e"/></g><circle cx="375.65" cy="443.95" r="34.15" fill="#315968"/><g transform="translate(409.8,409.8) scale(3.415) rotate(0)"><path d="M10 0H20V10L10 20H0V10L10 0Z" fill="#0d151b"/></g><g transform="translate(478.1,409.8) scale(3.415) rotate(0)"><path d="M10 0H20V10L10 20H0V10L10 0Z" fill="#0d1117"/></g><circle cx="580.55" cy="443.95" r="34.15" fill="#16232b"/><circle cx="648.85" cy="443.95" r="34.15" fill="#152129"/><g transform="translate(683,409.8) scale(3.415) rotate(0)"><path d="M10 0H20V10L10 20H0V10L10 0Z" fill="#16232c"/></g><g transform="translate(751.3,409.8) scale(3.415) rotate(0)"><path d="M10 0H20V10L10 20H0V10L10 0Z" fill="#0b1e25"/></g><g transform="translate(819.6,409.8) scale(3.415) rotate(0)"><path d="M10 0L20 10L10 20L0 10L10 0Z" fill="#284855"/></g><g transform="translate(887.9,409.8) scale(3.415) rotate(0)"><path d="M10 0H20V10L10 20H0V10L10 0Z" fill="#3c7082"/></g><g transform="translate(956.2,409.8) scale(3.415) rotate(0)"><path d="M10 0H20V10L10 20H0V10L10 0Z" fill="#0b1f26"/></g><g transform="translate(0,478.1) scale(3.415) rotate(0)"><path d="M10 0H20V10L10 20H0V10L10 0Z" fill="#0c1c22"/></g><circle cx="102.44999999999999" cy="512.25" r="34.15" fill="#1a2b34"/><g transform="translate(136.6,478.1) scale(3.415) rotate(0)"><path d="M10 0H20V10L10 20H0V10L10 0Z" fill="#0c171d"/></g><g transform="translate(204.9,478.1) scale(3.415) rotate(0)"><path d="M10 0H20V10L10 20H0V10L10 0Z" fill="#0c1b22"/></g><g transform="translate(273.2,478.1) scale(3.415) rotate(0)"><path d="M10 0H20V10L10 20H0V10L10 0Z" fill="#0c171d"/></g><circle cx="375.65" cy="512.25" r="34.15" fill="#182730"/><g transform="translate(409.8,478.1) scale(3.415) rotate(0)"><path d="M10 0H20V10L10 20H0V10L10 0Z" fill="#1d323c"/></g><g transform="translate(478.1,478.1) scale(3.415) rotate(0)"><path d="M10 0L20 10L10 20L0 10L10 0Z" fill="#203944"/></g><circle cx="580.55" cy="512.25" r="34.15" fill="#40788b"/><g transform="translate(614.7,478.1) scale(3.415) rotate(0)"><path d="M10 0H20V10L10 20H0V10L10 0Z" fill="#0c1a20"/></g><circle cx="717.15" cy="512.25" r="34.15" fill="#0b1d24"/><g transform="translate(751.3,478.1) scale(3.415) rotate(0)"><path d="M10 0L20 10L10 20L0 10L10 0Z" fill="#0c1b22"/></g><g transform="translate(819.6,478.1) scale(3.415) rotate(0)"><path d="M10 0L20 10L10 20L0 10L10 0Z" fill="#3c7183"/></g><g transform="translate(887.9,478.1) scale(3.415) rotate(0)"><path d="M10 0H20V10L10 20H0V10L10 0Z" fill="#305867"/></g><circle cx="990.35" cy="512.25" r="34.15" fill="#0d1319"/><g transform="translate(0,546.4) scale(3.415) rotate(0)"><path d="M10 0L20 10L10 20L0 10L10 0Z" fill="#274754"/></g><g transform="translate(68.3,546.4) scale(3.415) rotate(0)"><path d="M10 0L20 10L10 20L0 10L10 0Z" fill="#141f26"/></g><g transform="translate(136.6,546.4) scale(3.415) rotate(0)"><path d="M10 0H20V10L10 20H0V10L10 0Z" fill="#0d1117"/></g><g transform="translate(204.9,546.4) scale(3.415) rotate(0)"><path d="M10 0H20V10L10 20H0V10L10 0Z" fill="#1f3540"/></g><g transform="translate(273.2,546.4) scale(3.415) rotate(0)"><path d="M10 0L20 10L10 20L0 10L10 0Z" fill="#2d5260"/></g><circle cx="375.65" cy="580.55" r="34.15" fill="#121b22"/><g transform="translate(409.8,546.4) scale(3.415) rotate(0)"><path d="M10 0H20V10L10 20H0V10L10 0Z" fill="#0c1c23"/></g><g transform="translate(478.1,546.4) scale(3.415) rotate(0)"><path d="M10 0H20V10L10 20H0V10L10 0Z" fill="#0c181e"/></g><circle cx="580.55" cy="580.55" r="34.15" fill="#0c161d"/><g transform="translate(614.7,546.4) scale(3.415) rotate(0)"><path d="M10 0H20V10L10 20H0V10L10 0Z" fill="#0c151b"/></g><g transform="translate(683,546.4) scale(3.415) rotate(0)"><path d="M10 0L20 10L10 20L0 10L10 0Z" fill="#131d24"/></g><g transform="translate(751.3,546.4) scale(3.415) rotate(0)"><path d="M10 0H20V10L10 20H0V10L10 0Z" fill="#325c6b"/></g><circle cx="853.75" cy="580.55" r="34.15" fill="#0d131a"/><g transform="translate(887.9,546.4) scale(3.415) rotate(0)"><path d="M10 0H20V10L10 20H0V10L10 0Z" fill="#0d141a"/></g><g transform="translate(956.2,546.4) scale(3.415) rotate(0)"><path d="M10 0L20 10L10 20L0 10L10 0Z" fill="#2d5361"/></g><g transform="translate(0,614.7) scale(3.415) rotate(0)"><path d="M10 0H20V10L10 20H0V10L10 0Z" fill="#0c1b21"/></g><circle cx="102.44999999999999" cy="648.85" r="34.15" fill="#0d141a"/><g transform="translate(136.6,614.7) scale(3.415) rotate(0)"><path d="M10 0H20V10L10 20H0V10L10 0Z" fill="#141f27"/></g><g transform="translate(204.9,614.7) scale(3.415) rotate(0)"><path d="M10 0H20V10L10 20H0V10L10 0Z" fill="#3d7385"/></g><circle cx="307.34999999999997" cy="648.85" r="34.15" fill="#0c1b22"/><g transform="translate(341.5,614.7) scale(3.415) rotate(0)"><path d="M10 0H20V10L10 20H0V10L10 0Z" fill="#192932"/></g><circle cx="443.95" cy="648.85" r="34.15" fill="#0b2027"/><g transform="translate(478.1,614.7) scale(3.415) rotate(0)"><path d="M10 0H20V10L10 20H0V10L10 0Z" fill="#0b1e25"/></g><circle cx="580.55" cy="648.85" r="34.15" fill="#131d24"/><g transform="translate(614.7,614.7) scale(3.415) rotate(0)"><path d="M10 0H20V10L10 20H0V10L10 0Z" fill="#346070"/></g><circle cx="717.15" cy="648.85" r="34.15" fill="#25414d"/><g transform="translate(751.3,614.7) scale(3.415) rotate(0)"><path d="M10 0H20V10L10 20H0V10L10 0Z" fill="#0c171e"/></g><g transform="translate(819.6,614.7) scale(3.415) rotate(0)"><path d="M10 0H20V10L10 20H0V10L10 0Z" fill="#0b1c23"/></g><circle cx="922.05" cy="648.85" r="34.15" fill="#16242c"/><g transform="translate(956.2,614.7) scale(3.415) rotate(0)"><path d="M10 0L20 10L10 20L0 10L10 0Z" fill="#0d141a"/></g></g></svg>