<?xml version="1.0" encoding="UTF-8" standalone="no" ?>
<!DOCTYPE svg PUBLIC "-//W3C//DTD SVG 1.1//EN" "http://www.w3.org/Graphics/SVG/1.1/DTD/svg11.dtd">
<svg xmlns="http://www.w3.org/2000/svg" xmlns:xlink="http://www.w3.org/1999/xlink" version="1.1" width="1080" height="1080" viewBox="0 0 1080 1080" xml:space="preserve">
<desc>Created with Fabric.js 5.2.4</desc>
<defs>
</defs>
<rect x="0" y="0" width="100%" height="100%" fill="transparent"></rect>
<g transform="matrix(1 0 0 1 540 540)" id="20660755-c0f2-44d1-a32c-6a6aa4579589"  >
</g>
<g transform="matrix(1 0 0 1 540 540)" id="03e5aedb-9435-4387-bac6-40f7c93c0c0f"  >
<rect style="stroke: none; stroke-width: 1; stroke-dasharray: none; stroke-linecap: butt; stroke-dashoffset: 0; stroke-linejoin: miter; stroke-miterlimit: 4; fill: rgb(255,255,255); fill-rule: nonzero; opacity: 1; visibility: hidden;" vector-effect="non-scaling-stroke"  x="-540" y="-540" rx="0" ry="0" width="1080" height="1080" />
</g>
<g transform="matrix(17.87 0 0 17.87 539.89 556.81)" id="14e12ba5-24a3-4972-bd8f-7a63d5406a4d"  >
<circle style="stroke: rgb(0,0,0); stroke-width: 0; stroke-dasharray: none; stroke-linecap: butt; stroke-dashoffset: 0; stroke-linejoin: miter; stroke-miterlimit: 4; fill: rgb(255,255,255); fill-rule: nonzero; opacity: 1;" vector-effect="non-scaling-stroke"  cx="0" cy="0" r="35" />
</g>
<g transform="matrix(1.96 0 0 1.96 538.78 539.46)"  >
<g style="" vector-effect="non-scaling-stroke"   >
		<g transform="matrix(1 0 0 1 85.54 56.03)"  >
<path style="stroke: none; stroke-width: 1; stroke-dasharray: none; stroke-linecap: butt; stroke-dashoffset: 0; stroke-linejoin: miter; stroke-miterlimit: 4; fill: rgb(0,59,87); fill-rule: nonzero; opacity: 1;" vector-effect="non-scaling-stroke"  transform=" translate(-341.44, -169.59)" d="M 194.519337 112.044206 C 187.698564 112.044206 182.152486 114.063211 177.900552 118.099455 C 173.648619 122.139234 171.491713 127.434452 171.491713 133.922666 C 171.491713 137.285148 172.027403 140.350953 173.082873 143.160235 C 174.138343 145.975174 175.780773 148.582909 177.98895 150.939241 C 180.197127 153.297694 184.617017 156.501413 191.20442 160.5746 C 199.287514 165.509134 204.577238 169.513908 207.116022 172.640884 C 209.656575 175.765215 210.917127 179.03947 210.917127 182.453039 C 210.917127 187.023558 209.412597 190.671912 206.320442 193.414365 C 203.222983 196.158062 199.080663 197.524862 193.944751 197.524862 C 188.527735 197.524862 183.809061 195.6153 179.756906 191.823204 C 175.704751 188.025635 173.659227 183.002703 173.61326 176.707182 L 171.093923 176.707182 L 171.093923 199.558011 L 173.61326 199.558011 C 174.38232 197.394203 175.44663 196.287293 176.839779 196.287293 C 177.509834 196.287293 179.079779 196.749436 181.524862 197.61326 C 187.474033 199.730026 192.358895 200.751381 196.198895 200.751381 C 202.816354 200.751381 208.464972 198.433775 213.171271 193.723757 C 217.870497 189.015874 220.243094 183.337017 220.243094 176.707182 C 220.243094 171.56632 218.676685 166.992435 215.60221 163.005539 C 212.527735 159.013848 206.548508 154.370829 197.61326 149.038688 C 189.92442 144.419175 184.933481 140.65681 182.629834 137.723771 C 180.322652 134.794961 179.138122 131.555204 179.138122 128.000014 C 179.138122 124.154703 180.550718 121.066084 183.337017 118.762438 C 186.123315 116.457024 189.774144 115.314924 194.342541 115.314924 C 199.483757 115.314924 203.769282 116.84067 207.160221 119.911609 C 210.547624 122.987852 212.506519 127.250747 213.082873 132.729296 L 215.60221 132.729296 L 215.60221 112.928184 L 213.259669 112.928184 C 212.97326 113.937687 212.708066 114.58299 212.464088 114.872935 C 212.227182 115.161112 211.77105 115.314924 211.093923 115.314924 C 210.278895 115.314924 208.825635 114.971941 206.762431 114.29835 C 202.342541 112.809731 198.267403 112.044206 194.519337 112.044206 L 194.519337 112.044206 Z M 276.861878 112.044206 C 268.550718 112.044206 261.005083 114.003101 254.187845 117.922659 C 247.36 121.835145 241.955359 127.268073 237.966851 134.187859 C 233.98011 141.107101 232 148.455772 232 156.287307 C 232 166.808751 235.443978 176.182269 242.38674 184.39779 C 249.333039 192.608361 257.656575 197.724471 267.314917 199.690608 C 269.523094 200.841193 272.682431 203.811359 276.81768 208.618785 C 281.478011 214.044103 285.420552 217.957127 288.662983 220.287293 C 291.901878 222.618689 295.398895 224.327425 299.093923 225.458564 C 302.792486 226.584935 306.791602 227.138122 311.116022 227.138122 C 316.352707 227.138122 321.041326 226.227978 325.171271 224.353591 L 324.243094 222.055249 C 321.845746 222.919963 319.289282 223.337017 316.596685 223.337017 C 312.94232 223.337017 309.249061 222.131978 305.546961 219.712707 C 301.850166 217.287425 297.226961 212.660162 291.712707 205.834254 C 289.120884 202.563536 287.331713 200.499978 286.320442 199.690608 C 296.887514 197.62705 305.577017 192.505635 312.353591 184.309392 C 319.128398 176.116685 322.519337 166.766518 322.519337 156.287307 C 322.519337 143.84459 318.092376 133.387499 309.303867 124.861886 C 300.508287 116.335388 289.691934 112.044206 276.861878 112.044206 L 276.861878 112.044206 Z M 328.265193 112.044206 L 328.397719 114.740339 C 333.931421 114.740339 337.030648 116.370394 337.723686 119.646416 C 337.981808 120.818571 338.100261 122.982902 338.121476 126.099455 L 338.077348 185.723757 C 338.031381 190.176884 337.396685 193.02011 336.176796 194.254144 C 334.955138 195.479337 332.890166 196.24663 329.900552 196.552486 L 329.768027 199.248619 L 384.928248 199.248619 L 386.342612 185.723757 L 383.823275 185.723757 C 383.103717 189.408177 381.454214 192.047565 378.8288 193.546961 C 376.196314 195.057319 371.541286 195.801105 364.81775 195.801105 L 359.602281 195.801105 C 353.552336 195.801105 350.051783 193.61396 349.127143 189.21547 C 348.936203 188.345282 348.870789 187.412324 348.861949 186.38674 L 349.082944 126.099455 C 349.081529 121.653399 349.643386 118.67404 350.806701 117.215477 C 351.982391 115.762217 354.10217 114.948957 357.171341 114.740339 L 357.038815 112.044206 L 328.265335 112.044206 L 328.265193 112.044206 Z M 277.745856 115.314924 C 287.119558 115.314924 294.773039 119.00677 300.685083 126.453046 C 306.595359 133.901988 309.524862 144.111211 309.524862 157.038688 C 309.524862 169.288656 306.552928 179.097289 300.596685 186.475138 C 294.640442 193.850696 286.712928 197.524862 276.861878 197.524862 C 267.398011 197.524862 259.723315 193.736133 253.834254 186.121547 C 247.950497 178.506961 245.038674 168.620906 245.038674 156.464103 C 245.038674 143.971727 247.985856 133.971631 253.922652 126.497245 C 259.855912 119.030814 267.801105 115.314924 277.745856 115.314924 L 277.745856 115.314924 Z M 404.596685 128.132611 C 403.251271 128.132611 402.225856 128.586975 401.458564 129.502777 C 400.673591 130.415028 400.433149 131.52 400.707182 132.861893 C 400.972376 134.163631 401.706077 135.3045 402.872928 136.265208 C 404.032707 137.22501 405.28442 137.723771 406.629834 137.723771 C 407.93105 137.723771 408.922873 137.225038 409.635359 136.265208 C 410.347845 135.3045 410.565304 134.163631 410.298343 132.861893 C 410.024309 131.52 409.315359 130.415028 408.220994 129.502777 C 407.114254 128.586975 405.897901 128.132611 404.596685 128.132611 L 404.596685 128.132611 Z M 440.972376 137.281782 C 438.686409 146.075934 433.730829 150.834917 426.121547 151.602224 L 426.209945 154.121561 L 435.093923 154.121561 L 434.917127 183.911602 C 434.931271 189.004729 435.086851 192.395669 435.447514 194.121547 C 436.322652 198.253444 439.020552 200.353591 443.535912 200.353591 C 450.068508 200.353591 456.921105 196.374276 464.088398 188.41989 L 461.922652 186.563536 C 456.747845 191.801819 452.172376 194.430939 448.176796 194.430939 C 445.721105 194.430939 444.198895 193.018696 443.624309 190.232044 C 443.466961 189.555271 443.403315 188.764471 443.403315 187.845304 L 443.491713 154.121561 L 457.060773 154.121561 L 456.928248 150.099462 L 443.535982 150.099462 L 443.535982 137.281782 L 440.972446 137.281782 L 440.972376 137.281782 Z M 493.436464 148.508301 C 485.84663 148.508301 479.672928 152.192721 474.872928 159.513826 C 470.09768 166.847307 468.619669 174.97228 470.497238 183.911602 C 471.60221 189.14775 473.803315 193.20593 477.171271 196.066298 C 480.533923 198.925436 484.8 200.353591 489.900552 200.353591 C 494.649282 200.353591 501.261436 199.151211 504.044199 196.729282 C 506.834033 194.308766 509.404641 190.38744 511.779006 185.016575 L 509.878453 183.027624 C 506.091492 189.995138 498.448619 193.502762 492.685083 193.502762 C 484.761105 193.502762 479.908066 189.155359 478.099448 180.508287 C 477.864309 179.404545 477.689282 178.218785 477.569061 176.972376 C 486.995801 175.479867 494.14011 172.836943 498.961326 169.016575 C 503.779006 165.194099 508.616133 161.142283 507.712707 156.861893 C 507.175249 154.318328 505.854586 152.318416 503.823204 150.806644 C 501.765304 149.295579 496.422541 148.508301 493.436464 148.508301 L 493.436464 148.508301 Z M 410.475138 148.817694 L 394.121547 152.5746 L 394.121547 155.491727 L 399.779006 154.784545 C 402.519337 154.784545 404.131713 156.02548 404.640884 158.497252 C 404.812376 159.324485 404.920221 160.486202 404.950276 161.944766 L 404.773481 188.685083 C 404.727514 192.385414 404.317348 194.536479 403.491713 195.18232 C 402.659006 195.829392 400.463204 196.154696 396.906077 196.154696 L 396.81768 198.674033 L 422.762431 198.674033 L 422.718303 196.154696 C 419.113441 196.154696 416.776203 195.870239 415.734877 195.314917 C 414.711231 194.763145 414.005817 193.758946 413.701728 192.220994 C 413.46659 191.112656 413.364049 189.202924 413.348137 186.563536 L 413.436535 148.817694 L 410.475209 148.817694 L 410.475138 148.817694 Z M 489.281768 153.76797 C 490.860552 153.76797 492.386298 154.377731 493.922652 155.580125 C 495.43779 156.778275 496.360663 158.110593 496.662983 159.558025 C 498.142762 166.667159 491.84 171.582048 477.657459 174.320442 C 477.252597 169.136626 478.150718 164.430865 480.441989 160.17681 C 482.71558 155.926814 485.676906 153.76797 489.281768 153.76797 L 489.281768 153.76797 Z" stroke-linecap="round" />
</g>
		<g transform="matrix(1 0 0 1 -176.95 -8.87)"  >
<path style="stroke: none; stroke-width: 1; stroke-dasharray: none; stroke-linecap: butt; stroke-dashoffset: 0; stroke-linejoin: miter; stroke-miterlimit: 4; fill: rgb(15,128,204); fill-rule: nonzero; opacity: 1;" vector-effect="non-scaling-stroke"  transform=" translate(-78.94, -104.71)" d="M 157.887646 9.95179492 L 17.1498785 9.95179492 C 7.71748066 9.95179492 1.42108547e-14 17.6706899 1.42108547e-14 27.1027341 L 1.42108547e-14 182.31016 C 1.42108547e-14 191.741666 7.71748066 199.459331 17.1498785 199.459331 L 109.843448 199.459331 C 108.79135 153.338017 124.54117 63.8308448 157.887646 9.95179492 L 157.887646 9.95179492 Z" stroke-linecap="round" />
</g>
		<g transform="matrix(1 0 0 1 -177 -20.59)"  >
<linearGradient id="SVGID_8" gradientUnits="objectBoundingBox" gradientTransform="matrix(1 0 0 1 0 0)"  x1="0.576615627" y1="0.020464467599999998" x2="0.576615584" y2="0.944387516">
<stop offset="0%" style="stop-color:rgb(151,217,246);stop-opacity: 1"/>
<stop offset="92.024499%" style="stop-color:rgb(15,128,204);stop-opacity: 1"/>
<stop offset="100%" style="stop-color:rgb(15,128,204);stop-opacity: 1"/>
</linearGradient>
<path style="stroke: none; stroke-width: 1; stroke-dasharray: none; stroke-linecap: butt; stroke-dashoffset: 0; stroke-linejoin: miter; stroke-miterlimit: 4; fill: url(#SVGID_8); fill-rule: nonzero; opacity: 1;" vector-effect="non-scaling-stroke"  transform=" translate(-78.89, -92.97)" d="M 152.774718 14.9551098 L 17.1498785 14.9551098 C 10.4523315 14.9551098 5.00207735 20.4039496 5.00207735 27.1027341 L 5.00207735 170.986233 C 35.7181878 159.197504 81.8193467 149.025535 113.695413 149.487509 C 120.100971 115.994079 138.926844 50.3540911 152.774718 14.9551098 L 152.774718 14.9551098 Z" stroke-linecap="round" />
</g>
		<g transform="matrix(1 0 0 1 -105.41 -1.42)"  >
<path style="stroke: none; stroke-width: 1; stroke-dasharray: none; stroke-linecap: butt; stroke-dashoffset: 0; stroke-linejoin: miter; stroke-miterlimit: 4; fill: rgb(0,59,87); fill-rule: nonzero; opacity: 1;" vector-effect="non-scaling-stroke"  transform=" translate(-150.48, -112.15)" d="M 190.71505 4.8724579 C 181.076155 -3.7233432 169.405878 -0.270525525 157.887646 9.95179492 C 156.178033 11.470469 154.471956 13.1553308 152.774718 14.9551098 C 133.070851 35.8576513 114.781348 74.5758833 109.099138 104.144944 C 111.312619 108.633784 113.04168 114.361961 114.180243 118.737651 C 114.471956 119.860303 114.735381 120.914005 114.945768 121.810358 C 115.446099 123.931729 115.714829 125.307375 115.714829 125.307375 C 115.714829 125.307375 115.538033 124.638911 114.813171 122.536988 C 114.675271 122.133894 114.521459 121.693673 114.339359 121.175662 C 114.261569 120.96174 114.153724 120.70185 114.035271 120.424281 C 112.749967 117.436436 109.194608 111.130137 107.629967 108.384502 C 106.291624 112.332347 105.108862 116.025607 104.118807 119.367044 C 108.635934 127.631883 111.388641 141.795684 111.388641 141.795684 C 111.388641 141.795684 111.149967 140.877762 110.014939 137.674056 C 109.007204 134.840546 103.987978 126.046381 102.799028 123.990425 C 100.765171 131.498587 99.9570387 136.567669 100.68579 137.801872 C 102.100685 140.193393 103.448221 144.319802 104.631514 148.88325 C 107.304663 159.163729 109.162785 171.678918 109.162785 171.678918 C 109.162785 171.678918 109.222895 172.508259 109.323669 173.784553 C 108.952398 182.417835 109.17516 191.368811 109.843448 199.459331 C 110.729193 210.169253 112.396376 219.369526 114.521459 224.293452 L 115.96411 223.506896 C 112.843669 213.805939 111.576044 201.092568 112.131182 186.430911 C 112.970961 164.020133 118.128088 136.993747 127.65737 108.824723 C 143.756376 66.3018502 166.092729 32.1838391 186.535602 15.8903585 C 167.903116 32.7177618 142.684994 87.186712 135.135823 107.35732 C 126.683227 129.944723 120.693392 151.140929 117.083227 171.4489 C 123.311735 152.410321 143.450519 144.226624 143.450519 144.226624 C 143.450519 144.226624 153.328088 132.044885 164.871072 114.641298 C 157.956597 116.218314 146.602785 118.917983 142.799912 120.516215 C 137.190188 122.869364 135.678586 123.672016 135.678586 123.672016 C 135.678586 123.672016 153.849635 112.606381 169.43947 107.595994 C 190.87947 73.828038 214.237702 25.8563253 190.71505 4.8724579" stroke-linecap="round" />
</g>
</g>
</g>
</svg>